<svg xmlns="http://www.w3.org/2000/svg" width="200" height="77" viewBox="0 0 200 77">
  <g id="Group_16037" data-name="Group 16037" transform="translate(-78 -420)">
    <g id="Group_19" data-name="Group 19" transform="translate(-4.223 308.777)">
      <circle id="Ellipse_3" data-name="Ellipse 3" cx="26.5" cy="26.5" r="26.5" transform="translate(153.223 111.223)" fill="#eff0f2"/>
      <g id="Iconly_Bold_Scan" data-name="Iconly/Bold/Scan" transform="translate(168.435 126.369)">
        <g id="Scan" transform="translate(0.976 2.927)">
          <path id="Scan-2" data-name="Scan" d="M14.247,17.564a.729.729,0,1,1,0-1.457H15.8a2.381,2.381,0,0,0,2.4-2.355V10.278h-2.56v.968a2.214,2.214,0,0,1-2.215,2.211H8.038a2.214,2.214,0,0,1-2.214-2.211v-.968H3.265v3.478a2.378,2.378,0,0,0,2.394,2.35H7.248a.729.729,0,1,1,0,1.457H5.657a3.85,3.85,0,0,1-3.878-3.807V10.278H.744a.728.728,0,1,1,0-1.456h19.98a.728.728,0,1,1,0,1.456H19.688v3.473A3.854,3.854,0,0,1,15.8,17.564ZM6.088,7.341a.271.271,0,0,1-.263-.263V5.863a2.213,2.213,0,0,1,2.214-2.21h5.39a2.205,2.205,0,0,1,2.215,2.21V7.078a.274.274,0,0,1-.266.263ZM18.2,5.623V3.811a2.381,2.381,0,0,0-2.4-2.354H14.247A.735.735,0,0,1,13.5.73.737.737,0,0,1,14.247,0H15.8a3.852,3.852,0,0,1,3.886,3.811V5.623a.743.743,0,0,1-1.485,0Zm-16.423,0V3.808A3.85,3.85,0,0,1,5.657,0h1.59a.736.736,0,0,1,.743.729.735.735,0,0,1-.743.728H5.658a2.377,2.377,0,0,0-2.392,2.35V5.622a.744.744,0,0,1-1.487,0Z" fill="#0b0b0b"/>
        </g>
      </g>
    </g>
    <text id="Scan_Items_to_add_to_your_basket" data-name="Scan Items to add to your basket" transform="translate(78 493)" fill="#0b0b0b" font-size="12" font-family="Poppins-Medium, Poppins" font-weight="500"><tspan x="0" y="0">Scan Items to add to your basket</tspan></text>
  </g>
</svg>
