<svg xmlns="http://www.w3.org/2000/svg" width="26.182" height="10.182" viewBox="0 0 26.182 10.182">
  <g id="Group_16032" data-name="Group 16032" transform="translate(-42.058 -787.43)">
    <path id="Basket" d="M3.382,4.669q.429.08.705.429t.276.8q0,.407-.2.716T3.585,7.1a1.692,1.692,0,0,1-.2.076,1.938,1.938,0,0,1-.215.055,2.292,2.292,0,0,1-.232.033q-.12.011-.25.011H.5V2.2H2.6q.516,0,.891.167t.567.465q.193.3.193.676,0,.444-.236.742T3.382,4.669ZM1.52,4.291h.931q.364,0,.56-.164t.2-.469q0-.305-.2-.473t-.56-.167H1.52ZM2.545,6.444q.371,0,.578-.175t.207-.495q0-.327-.218-.513t-.589-.185h-1V6.444Zm2.371-1.2q0-.611.244-1.084t.662-.727q.418-.255.935-.255.451,0,.789.182t.542.458V3.244H9.113V7.273H8.087V6.684q-.2.284-.542.469t-.8.185q-.509,0-.927-.262T5.16,6.338Q4.916,5.862,4.916,5.244Zm3.171.015q0-.371-.145-.636t-.393-.407q-.247-.142-.531-.142t-.524.138q-.24.138-.389.4t-.149.629q0,.364.149.636T6.5,6.3q.244.145.52.145T7.549,6.3q.247-.142.393-.407T8.087,5.258Zm3.564,2.08q-.495,0-.887-.178t-.622-.484Q9.913,6.371,9.891,6h1.025q.029.233.229.385t.5.153q.291,0,.455-.116t.164-.3q0-.2-.2-.295t-.636-.215q-.451-.109-.738-.225t-.495-.356q-.207-.24-.207-.647,0-.335.193-.611t.553-.436q.36-.16.847-.16.72,0,1.149.36t.473.971h-.975q-.022-.24-.2-.382t-.476-.142q-.276,0-.425.1t-.149.284q0,.2.2.309t.633.215q.436.109.72.225t.491.36q.207.244.215.644,0,.349-.193.625t-.553.433Q12.131,7.338,11.651,7.338Zm4.807-.065L15.091,5.556V7.273H14.073V1.891h1.018V4.953l1.353-1.709h1.324L15.993,5.265l1.789,2.007Zm5.607-2.1q0,.218-.029.393H19.091q.036.436.305.684t.662.247q.567,0,.807-.487h1.1q-.175.582-.669.956t-1.215.375q-.582,0-1.044-.258t-.72-.731q-.258-.473-.258-1.091t.255-1.1q.255-.473.713-.727t1.055-.255q.575,0,1.029.247t.705.7Q22.065,4.582,22.065,5.171ZM21.011,4.88q-.007-.393-.284-.629t-.676-.236q-.378,0-.636.229T19.1,4.88Zm2.982-.8V6.029q0,.2.1.295t.331.091h.473v.858h-.64q-1.287,0-1.287-1.251V4.08h-.48V3.244h.48v-1h1.025v1h.9V4.08Z" transform="translate(42.058 787.43)"/>
  </g>
</svg>
