<svg id="Iconly_Light_Bag" data-name="Iconly/Light/Bag" xmlns="http://www.w3.org/2000/svg" width="34" height="34" viewBox="0 0 34 34">
  <g id="Bag" transform="translate(4.677 3.227)">
    <path id="Path_33955" d="M18.718,20.8H6.892c-4.344,0-7.677-1.569-6.73-7.884l1.1-8.558C1.848,1.206,3.857,0,5.621,0H20.04C21.83,0,23.723,1.3,24.4,4.357l1.1,8.558C26.3,18.517,23.062,20.8,18.718,20.8Z" transform="translate(0 6.432)" fill="none" stroke="#200e32" stroke-linecap="round" stroke-linejoin="round" stroke-miterlimit="10" stroke-width="1.5"/>
    <path id="Path_33956" d="M12.267,6.121A6.121,6.121,0,0,0,6.146,0h0A6.121,6.121,0,0,0,0,6.121H0" transform="translate(6.645 0)" fill="none" stroke="#200e32" stroke-linecap="round" stroke-linejoin="round" stroke-miterlimit="10" stroke-width="1.5"/>
    <path id="Line_192" d="M.5.458H.435" transform="translate(16.494 12.043)" fill="none" stroke="#200e32" stroke-linecap="round" stroke-linejoin="round" stroke-miterlimit="10" stroke-width="1.5"/>
    <path id="Line_193" d="M.5.458H.435" transform="translate(8.233 12.043)" fill="none" stroke="#200e32" stroke-linecap="round" stroke-linejoin="round" stroke-miterlimit="10" stroke-width="1.5"/>
  </g>
</svg>
