<svg xmlns="http://www.w3.org/2000/svg" width="32" height="10.182" viewBox="0 0 32 10.182">
  <g id="Group_16030" data-name="Group 16030" transform="translate(-42.058 -788.521)">
    <path id="Account" d="M3.615,6.305H1.593l-.335.967H.189L2.015,2.189H3.2L5.025,7.273H3.949Zm-.276-.815L2.6,3.367,1.869,5.491Zm2.109-.233q0-.625.255-1.095t.705-.727q.451-.258,1.033-.258.749,0,1.24.375T9.338,4.6H8.24q-.087-.262-.295-.411t-.513-.149q-.436,0-.691.316t-.255.9q0,.575.255.891t.691.316q.618,0,.807-.553h1.1q-.167.655-.662,1.04T7.44,7.338q-.582,0-1.033-.258T5.7,6.353Q5.447,5.884,5.447,5.258Zm4.378,0q0-.625.255-1.095t.705-.727q.451-.258,1.033-.258.749,0,1.24.375T13.716,4.6h-1.1q-.087-.262-.295-.411t-.513-.149q-.436,0-.691.316t-.255.9q0,.575.255.891t.691.316q.618,0,.807-.553h1.1q-.167.655-.662,1.04t-1.236.385q-.582,0-1.033-.258t-.705-.727Q9.825,5.884,9.825,5.258Zm6.429,2.08q-.582,0-1.047-.258t-.731-.731q-.265-.473-.265-1.091t.273-1.091q.273-.473.745-.731t1.055-.258q.582,0,1.055.258t.745.731q.273.473.273,1.091t-.28,1.091q-.28.473-.756.731T16.255,7.338Zm0-.887q.276,0,.52-.135t.389-.4q.145-.269.145-.655,0-.575-.3-.884t-.738-.309q-.436,0-.731.309t-.295.884q0,.575.287.884T16.255,6.451Zm6.655-3.207V7.273H21.884V6.764q-.2.262-.513.411t-.687.149q-.473,0-.836-.2t-.571-.589q-.207-.389-.207-.927V3.244h1.018V5.462q0,.48.24.738t.655.258q.422,0,.662-.258t.24-.738V3.244Zm3.236-.058q.72,0,1.164.455t.444,1.269V7.273H26.735V5.047q0-.48-.24-.738t-.655-.258q-.422,0-.665.258t-.244.738V7.273H23.913V3.244h1.018v.5q.2-.262.52-.411T26.145,3.185Zm3.76.895V6.029q0,.2.1.295t.331.091h.473v.858h-.64q-1.287,0-1.287-1.251V4.08H28.4V3.244h.48v-1h1.025v1h.9V4.08Z" transform="translate(42.058 788.521)"/>
  </g>
</svg>
